{
	"asset":{
		"generator":"Khronos glTF Blender I/O v3.5.30",
		"version":"2.0"
	},
	"scene":0,
	"scenes":[
		{
			"name":"Scene",
			"nodes":[
				4
			]
		}
	],
	"nodes":[
		{
			"mesh":0,
			"name":"Plane__0"
		},
		{
			"children":[
				0
			],
			"name":"Plane",
			"rotation":[
				-0.70710688829422,
				0,
				0,
				0.7071066498756409
			],
			"scale":[
				4060.33544921875,
				4060.3349609375,
				1836.0087890625
			],
			"translation":[
				371.145263671875,
				-565.2522583007812,
				0
			]
		},
		{
			"children":[
				1
			],
			"name":"RootNode"
		},
		{
			"children":[
				2
			],
			"name":"8dba6611794c42b2bc568def1aea265c.fbx",
			"rotation":[
				0.70710688829422,
				0,
				0,
				0.7071066498756409
			],
			"scale":[
				0.009999999776482582,
				0.010000000707805157,
				0.010000000707805157
			]
		},
		{
			"children":[
				3
			],
			"name":"Sketchfab_model",
			"rotation":[
				-0.70710688829422,
				0,
				0,
				0.7071066498756409
			]
		}
	],
	"materials":[
		{
			"doubleSided":true,
			"name":"Scene_-_Root",
			"pbrMetallicRoughness":{
				"metallicFactor":0,
				"roughnessFactor":0.6000000238418579
			}
		}
	],
	"meshes":[
		{
			"name":"Plane__0",
			"primitives":[
				{
					"attributes":{
						"POSITION":0,
						"TEXCOORD_0":1,
						"NORMAL":2
					},
					"indices":3,
					"material":0
				}
			]
		}
	],
	"accessors":[
		{
			"bufferView":0,
			"componentType":5126,
			"count":2025,
			"max":[
				1.0012391805648804,
				1.0005706548690796,
				0.04410301148891449
			],
			"min":[
				-1.0019422769546509,
				-1.000231146812439,
				0
			],
			"type":"VEC3"
		},
		{
			"bufferView":1,
			"componentType":5126,
			"count":2025,
			"type":"VEC2"
		},
		{
			"bufferView":2,
			"componentType":5126,
			"count":2025,
			"type":"VEC3"
		},
		{
			"bufferView":3,
			"componentType":5123,
			"count":11616,
			"type":"SCALAR"
		}
	],
	"bufferViews":[
		{
			"buffer":0,
			"byteLength":24300,
			"byteOffset":0,
			"target":34962
		},
		{
			"buffer":0,
			"byteLength":16200,
			"byteOffset":24300,
			"target":34962
		},
		{
			"buffer":0,
			"byteLength":24300,
			"byteOffset":40500,
			"target":34962
		},
		{
			"buffer":0,
			"byteLength":23232,
			"byteOffset":64800,
			"target":34963
		}
	],
	"buffers":[
		{
			"byteLength":88032,
			"uri":"data:application/octet-stream;base64,"
		}
	]
}
